# xmcd CD database file
#
# Track frame offsets:
#	150
#	17675
#	31450
#
# Disc length: 884 seconds
#
# Revision: 0
# Processed by: cddbd v1.5PL3 Copyright (c) Steve Scherf et al.
# Submitted via: CDex 1.50beta9
#
DISCID=1a037203
DTITLE=THE COLLECTORS - Giulietta
DYEAR=1997
DGENRE=Rock
TTITLE0=Giulietta
TTITLE1=BOXING TIME
TTITLE2=Space Alien (2000 light years mix)
EXTD=YEAR: 1997
EXTT0=
EXTT1=
EXTT2=
PLAYORDER=
